<svg xmlns="http://www.w3.org/2000/svg" viewBox="0 0 512 512" fill="#1B5B7E">
  <!-- Figura de la Dama de la Justicia simplificada -->

  <!-- Cabeza con venda -->
  <ellipse cx="256" cy="120" rx="45" ry="50"/>
  <rect x="220" y="100" width="72" height="18" rx="4"/>

  <!-- Cuerpo (vestido) -->
  <path d="M256 160 L220 200 L200 420 L230 440 L282 440 L312 420 L292 200 Z"/>

  <!-- Brazo izquierdo con balanza -->
  <path d="M220 200 L140 180 L140 200"/>

  <!-- Brazo derecho con espada -->
  <path d="M292 200 L350 350"/>
  <rect x="348" y="350" width="6" height="80" rx="2"/>
  <path d="M340 350 L360 350 L354 340 Z"/>

  <!-- Balanza izquierda -->
  <line x1="100" y1="195" x2="180" y2="195" stroke="#1B5B7E" stroke-width="4"/>
  <path d="M110 195 L100 215 L120 215 Z"/>
  <ellipse cx="110" cy="218" rx="15" ry="3"/>
  <path d="M170 195 L160 215 L180 215 Z"/>
  <ellipse cx="170" cy="218" rx="15" ry="3"/>
  <line x1="140" y1="180" x2="140" y2="195" stroke="#1B5B7E" stroke-width="3"/>

  <!-- Base/pedestal -->
  <rect x="200" y="440" width="112" height="12"/>
  <rect x="190" y="452" width="132" height="20"/>
  <rect x="180" y="472" width="152" height="28"/>
</svg>
