<?xml version="1.0" standalone="no"?>
<!DOCTYPE svg PUBLIC "-//W3C//DTD SVG 20010904//EN"
 "http://www.w3.org/TR/2001/REC-SVG-20010904/DTD/svg10.dtd">
<svg version="1.0" xmlns="http://www.w3.org/2000/svg"
 width="3508.000000pt" height="2481.000000pt" viewBox="0 0 3508.000000 2481.000000"
 preserveAspectRatio="xMidYMid meet">
<metadata>
Created by potrace 1.16, written by Peter Selinger 2001-2019
</metadata>
<g transform="translate(0.000000,2481.000000) scale(0.100000,-0.100000)"
fill="#FFFFFF" stroke="none" opacity="0.95">
<path d="M14846 17959 c-297 -41 -522 -171 -644 -372 -132 -219 -133 -554 -1
-773 42 -69 134 -163 212 -216 88 -60 279 -148 482 -223 335 -123 455 -196
512 -313 26 -53 28 -66 28 -177 0 -109 -2 -125 -26 -176 -73 -155 -244 -231
-468 -209 -175 18 -296 74 -417 195 -128 127 -198 274 -230 485 -7 52 -14 98
-14 103 0 4 -36 7 -80 7 l-80 0 0 -445 0 -445 70 0 69 0 10 38 c5 20 15 62 22
93 l12 57 67 -52 c123 -96 279 -165 452 -202 113 -25 396 -25 519 -1 177 35
312 93 424 183 89 71 146 140 195 236 57 115 73 200 68 371 -4 126 -8 152 -35
229 -82 235 -267 369 -768 558 -193 72 -371 160 -427 209 -67 59 -99 130 -105
234 -19 301 233 481 575 411 117 -24 195 -66 283 -154 111 -110 173 -247 204
-452 l6 -38 74 0 75 0 0 395 0 395 -69 0 c-76 0 -73 3 -86 -75 -12 -78 -8 -77
-96 -24 -97 58 -212 104 -328 130 -100 23 -374 34 -485 18z"/>
<path d="M27445 17955 c-354 -57 -685 -255 -878 -527 -103 -144 -179 -328
-214 -518 -26 -145 -24 -421 5 -566 81 -407 305 -705 669 -889 198 -99 379
-139 633 -139 252 1 420 39 630 144 375 188 619 525 685 945 23 146 16 438
-13 565 -58 247 -155 431 -318 600 -184 191 -407 314 -676 371 -125 27 -397
34 -523 14z m360 -190 c277 -73 460 -366 516 -830 17 -145 15 -475 -5 -621
-69 -520 -298 -813 -636 -816 -150 -2 -271 42 -374 134 -144 128 -236 324
-287 613 -20 114 -23 162 -23 395 0 232 3 281 23 395 47 267 130 453 261 585
117 118 212 158 375 159 52 1 116 -6 150 -14z"/>
<path d="M12198 17943 l-798 -3 0 -88 0 -88 88 -10 c109 -13 161 -37 185 -86
33 -68 39 -241 35 -1120 -5 -898 -6 -916 -53 -968 -22 -25 -96 -46 -187 -55
l-68 -7 0 -89 0 -89 1149 0 1149 0 6 93 c13 201 36 634 36 665 l0 32 -79 0
-79 0 -6 -47 c-40 -288 -113 -431 -253 -495 -112 -50 -194 -58 -624 -58 l-389
0 0 550 0 550 103 0 c147 0 260 -16 319 -46 86 -43 130 -145 146 -334 l7 -85
84 -3 84 -3 -8 151 c-9 195 -9 566 0 748 l8 142 -87 0 -86 0 0 -44 c0 -65 -29
-204 -51 -248 -40 -77 -112 -98 -351 -98 l-168 0 0 470 0 470 324 0 c179 0
359 -5 400 -11 245 -34 338 -130 384 -401 l17 -98 82 0 83 0 -5 38 c-8 59 -24
311 -31 500 l-7 172 -281 -2 c-155 -2 -640 -4 -1078 -5z"/>
<path d="M16350 17928 c0 -7 -16 -168 -35 -358 -19 -190 -35 -346 -35 -347 0
-2 36 -3 79 -3 l79 0 7 43 c13 82 55 227 81 279 81 162 198 208 534 208 l190
0 0 -992 c0 -546 -4 -1021 -9 -1055 -20 -134 -52 -159 -223 -176 l-108 -11 0
-87 0 -87 38 4 c181 21 1036 21 1215 0 l37 -4 0 88 0 87 -92 7 c-178 13 -218
38 -237 147 -8 46 -11 363 -11 1072 l0 1007 189 0 c211 0 309 -14 388 -54 113
-57 174 -173 223 -418 l11 -58 81 0 80 0 -6 28 c-3 15 -20 177 -38 360 l-32
332 -1203 0 c-956 0 -1203 -3 -1203 -12z"/>
<path d="M19000 17852 l0 -89 68 -7 c92 -9 136 -22 170 -51 56 -47 55 -35 62
-875 8 -905 8 -897 103 -1085 31 -60 61 -100 122 -160 88 -88 168 -139 289
-186 298 -115 770 -116 1055 -2 224 89 388 261 457 478 53 169 56 212 63 1015
6 663 8 749 23 782 22 50 55 69 143 81 l75 11 0 88 0 87 -97 -7 c-127 -9 -408
-9 -545 0 l-108 8 0 -88 0 -88 93 -11 c147 -17 174 -39 196 -158 15 -78 15
-1338 1 -1455 -28 -230 -103 -378 -231 -460 -182 -117 -578 -126 -782 -18
-135 72 -210 214 -237 450 -14 119 -13 1409 1 1483 22 119 49 141 196 158 l93
11 0 88 0 88 -82 -7 c-46 -5 -281 -8 -523 -8 -242 0 -477 3 -522 8 l-83 7 0
-88z"/>
<path d="M21930 17853 l0 -89 95 -11 c117 -14 152 -32 185 -98 l25 -50 3 -920
c3 -955 1 -1019 -38 -1083 -27 -44 -69 -62 -176 -74 l-94 -11 0 -89 c0 -82 2
-90 18 -83 32 13 687 17 992 7 351 -13 520 -5 705 33 150 30 240 61 367 128
310 160 494 427 565 817 24 134 24 468 0 599 -50 263 -154 469 -322 636 -187
187 -406 292 -720 347 -137 24 -260 26 -1030 18 -258 -2 -494 -1 -522 4 l-53
8 0 -89z m1310 -118 c205 -31 335 -90 451 -205 117 -115 183 -265 226 -515 22
-127 25 -572 5 -710 -33 -229 -112 -435 -209 -544 -66 -75 -172 -141 -284
-179 -124 -40 -216 -52 -415 -52 l-164 0 0 1110 0 1110 148 0 c81 0 190 -7
242 -15z"/>
<path d="M24860 17852 l0 -88 95 -11 c112 -13 152 -33 180 -88 20 -39 20 -63
23 -995 2 -633 -1 -971 -8 -1004 -21 -98 -65 -126 -222 -141 l-68 -7 0 -88 0
-88 38 4 c182 21 966 21 1145 0 l37 -4 0 88 0 88 -62 6 c-146 15 -184 31 -213
85 -33 64 -36 174 -32 1086 2 706 6 909 16 942 25 81 74 108 215 119 l76 7 0
89 0 88 -82 -7 c-46 -5 -283 -8 -528 -8 -245 0 -482 3 -527 8 l-83 7 0 -88z"/>
<path d="M6396 17803 c-4 -5 -65 -8 -136 -8 l-128 0 -68 -47 c-112 -77 -235
-189 -261 -237 -18 -34 -23 -60 -23 -115 0 -39 -5 -176 -12 -305 l-12 -233
-37 -45 c-20 -25 -58 -93 -84 -152 -41 -91 -46 -113 -43 -157 5 -56 14 -73
143 -260 l80 -116 -45 -38 c-48 -41 -74 -54 -295 -150 -210 -91 -263 -134
-314 -250 -30 -69 -85 -306 -141 -605 -82 -433 -155 -704 -220 -815 -129 -222
-200 -452 -275 -895 -69 -407 -76 -450 -87 -483 l-10 -32 -38 77 c-46 96 -85
135 -134 136 -48 1 -85 -27 -119 -94 -28 -52 -28 -58 -24 -164 3 -78 12 -133
29 -189 20 -66 23 -86 15 -114 -25 -79 44 -243 178 -421 l82 -110 -46 -19
c-57 -24 -72 -28 -200 -47 -130 -19 -162 -35 -201 -94 -35 -56 -37 -74 -10
-101 26 -26 50 -25 125 4 66 27 143 41 277 52 85 7 87 6 97 -17 6 -13 63 -226
127 -474 64 -247 140 -540 169 -650 29 -110 110 -418 179 -685 138 -528 239
-907 262 -984 21 -72 17 -172 -11 -310 -45 -225 -137 -444 -259 -619 -90 -130
-106 -158 -106 -197 1 -57 39 -90 158 -135 l73 -27 -3 -46 -3 -46 -163 -1
c-161 0 -164 0 -184 -24 -11 -15 -17 -33 -14 -45 3 -12 6 -119 6 -238 l0 -218
1660 0 1660 0 0 243 c0 195 -3 247 -14 263 -13 17 -26 19 -138 17 -68 -2 -141
1 -163 5 l-40 7 -6 63 c-9 96 -8 95 -207 93 -103 -1 -173 2 -176 8 -4 5 -20
81 -37 168 -17 87 -51 250 -75 363 -25 113 -46 225 -45 250 0 94 101 814 115
822 25 14 56 106 121 369 36 146 65 272 65 280 0 8 11 30 24 48 13 18 27 49
31 69 9 49 24 76 170 312 70 113 136 221 146 242 40 77 36 138 -26 478 -19
102 -48 273 -65 380 -41 265 -117 688 -141 783 -11 43 -35 177 -54 298 -20
121 -43 235 -52 252 -9 18 -20 72 -24 120 -5 49 -15 103 -24 120 -8 16 -15 49
-15 71 0 24 -10 60 -24 86 -13 25 -27 70 -31 100 -21 163 -51 247 -138 385
-31 49 -60 104 -63 122 -8 40 23 262 77 553 22 118 60 339 85 490 52 320 68
365 160 449 75 69 157 106 309 140 227 52 508 128 570 156 77 34 145 48 145
29 0 -21 -99 -383 -111 -405 -5 -11 -21 -36 -35 -56 -17 -25 -24 -50 -24 -81
0 -38 5 -49 35 -78 55 -51 168 -102 270 -121 124 -23 336 -22 430 2 183 47
325 153 325 244 0 12 -18 41 -40 65 -37 40 -79 116 -80 142 0 8 19 6 60 -7
219 -68 812 -18 912 78 40 39 39 94 -3 133 -16 16 -43 41 -59 56 -17 15 -41
57 -56 98 -15 39 -48 126 -75 193 -26 67 -57 156 -68 198 -25 90 -55 154 -83
176 -14 10 -49 95 -99 238 l-78 221 30 56 c22 43 29 69 29 113 0 69 -18 91
-73 91 -43 0 -184 -30 -277 -59 -99 -31 -104 -30 -97 27 11 97 82 232 122 232
24 0 94 60 119 102 36 62 61 164 52 211 -11 61 -76 122 -180 173 -144 71 -208
60 -305 -51 -55 -64 -79 -127 -89 -246 -7 -73 -17 -119 -31 -147 -12 -23 -21
-55 -21 -72 0 -17 -14 -58 -31 -92 -17 -34 -46 -101 -64 -148 -19 -47 -43
-107 -55 -133 -23 -53 -21 -77 8 -77 32 0 57 39 139 215 44 94 101 211 126
260 l47 90 -6 -160 c-9 -284 -15 -305 -106 -351 -247 -123 -328 -182 -328
-240 0 -22 -155 -269 -199 -317 -53 -58 -162 -95 -448 -151 -256 -50 -256 -50
-399 -31 -127 17 -343 17 -386 0 -16 -6 -17 -3 -10 26 15 69 8 202 -12 244
-24 48 -131 155 -203 201 -86 56 -93 71 -93 188 0 122 -18 167 -106 261 l-56
60 8 145 c13 222 10 263 -26 336 -35 72 -171 208 -243 243 -43 21 -116 28
-131 14z m119 -125 c28 -14 66 -44 86 -65 58 -63 67 -81 17 -36 -117 105 -296
150 -433 108 -57 -17 -69 -13 -28 9 23 13 55 16 168 13 129 -2 144 -5 190 -29z
m2761 -34 c7 -26 -1 -122 -11 -132 -2 -3 -25 -8 -50 -12 -50 -8 -53 -3 -35 60
10 36 64 110 81 110 5 0 12 -12 15 -26z m-2838 -74 c33 -17 72 -45 88 -61 27
-28 27 -29 6 -29 -17 0 -22 -6 -22 -24 0 -18 16 -35 64 -70 35 -25 79 -64 97
-87 31 -40 32 -42 14 -55 -10 -8 -24 -14 -29 -14 -16 0 -174 63 -233 93 -73
38 -136 37 -191 -2 -22 -16 -60 -35 -83 -41 -50 -14 -116 -45 -141 -68 -42
-37 -2 -85 49 -59 25 13 132 47 147 47 3 0 6 -9 6 -21 0 -39 19 -59 55 -59 19
0 58 -9 87 -21 60 -24 94 -19 110 16 6 14 17 25 23 25 9 0 73 -43 115 -77 8
-7 0 -176 -11 -225 -6 -25 -19 -54 -29 -63 -17 -15 -23 -14 -92 16 -99 43
-190 50 -280 20 -36 -12 -74 -30 -85 -41 -21 -19 -21 -19 -27 15 -4 19 -23 58
-43 87 -33 48 -37 62 -43 146 -10 125 -36 152 -115 122 -26 -10 -27 -9 -21 17
21 86 78 153 191 226 83 53 69 107 -18 73 l-41 -16 43 44 c35 36 48 43 62 36
48 -26 96 1 71 41 -12 18 -2 24 73 43 52 13 143 -2 203 -34z m2994 -27 c6 -8
20 -10 34 -7 l23 6 -26 -60 -26 -60 -48 30 c-50 30 -53 36 -43 76 4 15 14 22
29 22 16 0 26 8 31 23 7 21 8 21 12 2 2 -11 9 -26 14 -32z m-3509 -37 c-32
-35 -60 -63 -62 -61 -13 14 86 119 117 124 2 1 -23 -28 -55 -63z m3382 -89
c16 -13 13 -14 -28 -13 -35 1 -43 4 -35 14 14 16 40 15 63 -1z m-35 -107 c20
-11 20 -11 -1 -52 -12 -23 -27 -58 -34 -77 -13 -33 -14 -27 -14 79 0 107 1
113 15 88 8 -15 23 -32 34 -38z m-2409 -475 c20 -42 25 -110 10 -119 -12 -8
-113 104 -147 161 -21 35 -25 50 -19 84 l7 41 65 -63 c36 -35 74 -82 84 -104z
m-1023 -87 c-2 -40 5 -120 14 -178 10 -58 20 -135 24 -172 6 -63 5 -68 -13
-68 -22 0 -83 62 -135 136 -43 62 -41 92 15 177 21 32 43 73 49 90 35 110 49
115 46 15z m3672 -35 c-5 -16 -50 -167 -100 -338 -201 -685 -232 -777 -250
-759 -6 6 -25 55 -44 109 -19 55 -53 148 -75 207 -23 59 -41 119 -41 135 0 36
42 179 79 268 16 39 36 104 46 146 9 41 26 87 38 103 16 19 68 46 177 91 85
35 160 64 167 64 9 1 9 -7 3 -26z m-3408 -120 c38 -41 96 -64 189 -76 49 -6
89 -16 89 -22 0 -5 -13 -81 -29 -169 -27 -144 -38 -175 -63 -176 -24 0 -83 74
-128 160 -47 93 -82 136 -102 124 -10 -6 -11 197 -1 222 6 15 8 13 14 -10 5
-16 18 -40 31 -53z m2909 -60 c-10 -27 -37 -105 -61 -175 -24 -71 -46 -128
-50 -128 -9 0 -100 255 -92 258 4 2 52 22 107 46 55 24 103 44 107 45 4 1 -1
-20 -11 -46z m563 -373 c-8 -228 -16 -429 -19 -447 -5 -30 -8 -32 -63 -38 -31
-3 -86 -12 -122 -20 -36 -7 -66 -13 -67 -12 0 1 62 212 140 469 77 257 142
467 143 465 1 -1 -5 -189 -12 -417z m199 124 c-5 -30 14 -92 109 -364 30 -85
57 -166 61 -179 l6 -24 -114 5 c-70 3 -121 10 -130 18 -13 11 -15 68 -14 419
l1 406 42 -125 c27 -78 41 -137 39 -156z m-3026 110 c41 -41 125 -84 166 -84
23 0 27 4 27 28 0 15 -11 62 -24 105 l-25 77 75 -52 c109 -75 210 -172 224
-214 13 -38 7 -123 -11 -156 -12 -23 -27 -23 -165 3 l-113 21 -119 122 c-127
129 -132 139 -132 240 l0 51 30 -52 c17 -29 46 -69 67 -89z m2077 -207 c32
-86 36 -103 26 -132 -6 -18 -19 -40 -30 -50 -19 -17 -92 -46 -99 -40 -2 2 9
81 25 174 16 94 31 165 35 158 4 -7 23 -56 43 -110z m-2774 -25 c0 -5 14 -30
31 -55 35 -54 94 -92 156 -102 48 -8 146 10 180 32 23 15 23 15 23 -26 0 -68
17 -73 243 -79 141 -3 227 0 322 12 72 9 151 16 176 16 25 0 55 7 68 16 20 15
43 16 165 11 77 -4 184 -14 236 -23 102 -17 99 -17 357 20 284 42 466 87 551
136 19 11 32 15 32 8 0 -25 -41 -147 -53 -157 -7 -6 -65 -26 -128 -45 -63 -19
-193 -60 -289 -91 -237 -76 -328 -103 -439 -126 -184 -38 -196 -30 -186 113 6
87 5 101 -10 118 -36 40 -74 27 -179 -61 -139 -117 -193 -207 -212 -351 -4
-27 -12 -52 -18 -54 -6 -2 -79 18 -162 45 -138 46 -483 135 -679 176 l-80 17
-137 138 c-76 76 -138 144 -138 152 -1 13 147 164 163 167 4 0 7 -3 7 -7z
m2970 -484 c57 -150 111 -293 121 -318 l17 -45 -121 7 c-67 3 -192 4 -278 1
l-156 -6 39 239 c21 131 42 248 47 260 6 13 35 31 86 50 43 16 89 41 104 55
14 15 28 27 32 28 3 0 52 -122 109 -271z m-3386 180 c88 -306 142 -552 130
-590 -4 -13 -54 -94 -113 -180 l-106 -158 -3 88 c-3 71 11 268 32 447 5 40 -2
55 -24 55 -47 0 -126 -160 -174 -355 -19 -77 -47 -193 -61 -259 -37 -167 -83
-292 -186 -508 -132 -274 -179 -432 -179 -595 0 -131 -29 -227 -217 -713 -93
-241 -95 -247 -105 -365 -15 -193 -24 -213 -133 -319 -51 -50 -102 -110 -114
-133 -12 -24 -23 -43 -26 -43 -2 0 -20 28 -39 63 -41 74 -70 168 -61 199 4 13
29 46 55 73 27 28 85 109 130 180 69 109 84 140 91 190 63 428 121 734 164
863 19 56 67 173 106 260 39 86 91 213 115 282 65 186 157 560 214 871 71 388
104 483 194 555 30 24 265 141 288 143 4 1 14 -23 22 -51z m382 -269 c19 -11
185 -59 381 -108 375 -95 650 -190 664 -228 3 -10 3 -65 -2 -123 -18 -243 -9
-283 50 -225 l29 27 -25 -114 c-13 -62 -30 -139 -36 -171 l-12 -58 -33 158
c-51 242 -58 263 -88 263 -19 0 -26 -6 -30 -30 -4 -16 -9 -30 -13 -30 -3 0
-19 25 -35 55 -34 66 -98 140 -137 160 -32 17 -142 20 -207 5 -24 -6 -63 -20
-87 -31 -39 -18 -45 -25 -45 -52 0 -20 13 -48 39 -81 67 -88 254 -273 298
-295 39 -19 71 -56 60 -68 -6 -6 -66 24 -314 159 -117 63 -209 108 -218 104
-31 -12 -16 -54 40 -111 51 -53 52 -55 17 -34 -67 40 -336 221 -365 245 -16
13 -39 24 -53 24 -19 0 -24 -5 -24 -26 0 -19 14 -39 52 -73 29 -25 91 -82 138
-126 105 -100 258 -237 325 -291 80 -66 266 -190 354 -237 l82 -44 -103 -12
c-57 -6 -155 -14 -218 -17 l-115 -6 -39 31 c-21 17 -64 72 -95 123 -32 51 -82
134 -113 183 -31 50 -85 142 -120 205 -55 98 -68 115 -91 118 -18 2 -29 -2
-33 -13 -9 -22 23 -277 52 -419 13 -66 23 -121 21 -123 -6 -5 -147 267 -215
412 -102 220 -104 245 -29 324 75 78 128 189 135 279 2 38 -1 93 -7 123 -9 44
-119 404 -139 459 -3 8 56 -54 132 -137 76 -84 153 -162 172 -174z m3755 -8
c132 -11 189 -20 189 -31 0 -15 -99 -50 -170 -60 -116 -16 -319 9 -398 49
l-36 18 70 12 c128 21 194 23 345 12z m-1216 -108 c-14 -135 -28 -185 -53
-194 -33 -13 -33 -13 -18 24 8 17 26 76 41 130 15 53 30 97 32 97 2 0 2 -26
-2 -57z m400 -258 c218 -23 245 -27 245 -36 0 -13 -106 -64 -184 -88 -38 -12
-95 -21 -131 -21 -53 0 -75 6 -141 39 -82 41 -141 91 -130 110 10 16 174 14
341 -4z m-3399 -820 c73 -364 68 -442 -62 -861 -96 -313 -117 -420 -168 -889
-31 -280 -81 -832 -96 -1050 -6 -88 -15 -214 -19 -280 -5 -66 -7 -374 -5 -685
2 -311 2 -560 -1 -555 -3 6 -81 327 -174 715 -93 388 -190 789 -215 892 -25
103 -46 196 -46 207 0 40 39 52 202 60 84 5 165 13 181 20 65 26 52 113 -22
151 -52 26 -57 26 -127 -10 -55 -28 -69 -31 -196 -37 -158 -7 -151 -13 -123
92 8 31 21 163 30 293 22 345 19 333 123 549 117 243 247 538 267 605 9 29 20
109 25 178 5 69 15 143 23 165 30 79 287 620 314 657 14 21 30 35 34 31 4 -4
29 -116 55 -248z m160 -17 c77 -151 211 -306 311 -361 93 -50 107 -14 39 103
-47 81 -51 100 -12 53 14 -17 53 -43 88 -58 35 -15 77 -38 93 -51 58 -43 320
-142 451 -169 43 -9 80 -17 81 -19 2 -1 -22 -47 -52 -102 -90 -163 -76 -175
116 -94 65 28 125 50 132 50 23 0 103 -57 130 -92 34 -44 63 -110 77 -173 6
-28 38 -138 70 -245 33 -107 67 -235 76 -285 20 -109 32 -699 33 -1557 l1
-567 -22 -26 c-17 -19 -48 -33 -113 -51 -65 -19 -119 -43 -195 -90 -131 -79
-293 -151 -286 -126 3 9 14 49 25 87 40 140 350 1383 375 1505 14 69 28 155
32 192 6 59 5 68 -11 74 -31 12 -49 -11 -76 -102 -34 -116 -349 -1015 -424
-1209 -83 -218 -177 -426 -277 -620 -186 -358 -258 -510 -626 -1325 -116 -257
-148 -319 -150 -295 -6 46 27 539 43 645 17 116 35 167 84 245 99 155 219 349
271 435 31 52 82 133 112 180 75 116 184 299 326 547 147 257 182 325 182 358
0 36 -27 43 -55 14 -13 -13 -114 -161 -225 -328 -220 -332 -401 -594 -549
-796 -115 -158 -114 -157 -105 -120 5 17 7 43 6 60 -2 39 50 212 152 504 46
130 113 328 150 441 56 169 80 227 139 330 319 564 887 1642 887 1686 0 17 -6
24 -19 24 -13 0 -39 -33 -87 -112 -222 -366 -586 -901 -833 -1223 -92 -121
-219 -275 -227 -275 -5 0 38 70 316 515 113 182 219 353 235 380 15 28 70 115
120 195 157 246 357 602 363 643 4 34 3 37 -20 37 -20 0 -47 -31 -153 -177
-71 -98 -231 -315 -354 -483 -124 -168 -301 -408 -394 -535 -175 -237 -249
-331 -446 -570 l-116 -139 -8 109 c-11 150 -1 1161 12 1260 6 44 13 97 16 117
l7 37 60 -67 c83 -92 172 -167 238 -200 48 -23 67 -27 146 -27 84 0 95 3 165
37 71 36 212 135 277 196 35 33 43 76 16 86 -9 4 -58 -13 -113 -38 -139 -63
-187 -78 -274 -84 -106 -6 -152 12 -237 97 -63 64 -180 227 -216 303 l-17 36
53 131 c29 72 54 131 55 131 2 0 48 -60 104 -132 151 -201 300 -361 369 -397
25 -13 52 -1 52 23 0 6 -39 63 -86 126 -124 165 -196 274 -243 368 -22 45 -41
84 -41 87 0 3 39 -52 86 -122 88 -130 172 -242 227 -300 33 -35 64 -43 73 -18
3 8 -20 90 -51 182 -260 768 -397 1183 -389 1183 2 0 16 -24 30 -52z m-1421
-1444 c68 -68 62 -190 -13 -257 -19 -17 -20 -16 -36 41 -27 96 -32 177 -12
207 19 29 38 32 61 9z m245 -769 c26 -77 18 -98 -34 -93 -30 3 -31 5 -34 54
-2 39 2 56 18 77 12 15 23 27 25 27 2 0 13 -29 25 -65z m69 -455 c55 -207 65
-234 89 -238 28 -4 33 20 17 75 -19 67 -67 314 -62 319 5 6 52 -157 158 -556
124 -462 215 -833 454 -1850 113 -481 215 -910 226 -953 32 -125 57 -256 65
-337 l7 -75 -40 50 c-22 28 -48 64 -56 82 -18 34 -21 46 -512 1993 -179 712
-346 1370 -369 1462 -29 114 -39 171 -33 177 6 6 12 10 13 8 1 -1 20 -72 43
-157z m2260 -2138 c29 -58 94 -127 147 -158 62 -36 68 -63 61 -268 -4 -113
-15 -231 -34 -346 -46 -287 -40 -349 78 -938 12 -57 19 -105 16 -108 -2 -3
-45 2 -93 10 -49 9 -106 18 -127 21 -30 5 -37 10 -33 23 15 47 35 154 41 214
10 97 0 149 -42 210 -63 93 -64 101 -73 558 -5 228 -11 541 -14 695 l-6 280
28 -75 c16 -41 39 -95 51 -118z m-465 -122 c-4 -83 -10 -130 -13 -110 -5 29
-10 35 -30 35 -21 0 -36 -27 -139 -247 -64 -136 -117 -246 -119 -245 -1 2 55
154 126 338 70 184 139 363 152 399 l24 65 3 -45 c2 -25 0 -110 -4 -190z m313
-1002 c-3 -8 -6 -5 -6 6 -1 11 2 17 5 13 3 -3 4 -12 1 -19z m-10 -60 c-3 -7
-5 -2 -5 12 0 14 2 19 5 13 2 -7 2 -19 0 -25z m-10 -40 c-3 -8 -6 -5 -6 6 -1
11 2 17 5 13 3 -3 4 -12 1 -19z m-31 -134 c-36 -147 -38 -172 -21 -234 28
-100 29 -122 5 -178 l-22 -52 -79 0 -79 0 34 53 c56 88 99 207 162 455 10 40
20 69 22 64 2 -6 -8 -54 -22 -108z"/>
<path d="M19292 14495 c-24 -7 -61 -26 -83 -41 -22 -15 -165 -161 -316 -323
l-277 -296 94 -3 93 -3 300 161 c337 181 375 205 406 259 25 45 28 119 7 159
-23 43 -71 83 -112 93 -50 11 -60 11 -112 -6z"/>
<path d="M25420 13634 c-262 -32 -449 -96 -630 -217 -106 -70 -282 -253 -348
-360 -97 -156 -158 -325 -186 -520 -18 -121 -21 -370 -5 -483 59 -423 297
-761 663 -939 207 -101 415 -141 681 -132 174 6 287 25 410 66 226 77 403 234
500 444 31 67 85 247 85 283 0 12 -17 14 -86 12 l-86 -3 -22 -70 c-73 -229
-231 -391 -449 -460 -94 -30 -252 -48 -341 -40 -351 32 -574 249 -661 644 -33
145 -45 272 -45 459 0 655 176 1010 550 1109 89 24 300 23 390 -1 127 -34 207
-81 301 -175 71 -72 94 -104 132 -182 56 -112 90 -229 108 -362 l12 -97 74 0
73 0 0 238 c0 131 3 341 7 465 l6 227 -75 0 c-86 0 -80 6 -93 -102 -4 -32 -9
-58 -12 -58 -2 0 -32 20 -66 44 -121 86 -276 151 -445 186 -94 20 -357 34
-442 24z"/>
<path d="M28095 13634 c-220 -32 -347 -69 -499 -147 -294 -150 -511 -394 -615
-690 -60 -171 -75 -270 -75 -492 0 -170 3 -216 23 -305 60 -279 173 -486 361
-664 263 -247 613 -370 1000 -353 657 29 1160 469 1255 1097 19 124 19 336 -1
467 -51 347 -213 623 -486 828 -156 118 -333 197 -528 236 -91 18 -366 33
-435 23z m270 -199 c94 -24 162 -62 236 -133 138 -129 223 -315 275 -597 25
-139 31 -545 10 -712 -51 -401 -199 -674 -421 -779 -164 -78 -369 -64 -521 34
-183 118 -304 350 -361 690 -26 155 -26 591 1 747 70 422 251 688 509 751 73
17 202 17 272 -1z"/>
<path d="M11200 13522 l0 -89 100 -7 c117 -8 188 -27 218 -58 52 -56 52 -55
52 -1228 0 -700 -4 -1108 -11 -1150 -15 -94 -58 -182 -108 -218 -102 -74 -266
-66 -353 16 -36 34 -35 44 8 67 53 29 112 100 129 158 19 65 19 161 -1 219
-21 63 -78 126 -138 154 -75 35 -192 34 -264 -2 -163 -81 -211 -303 -111 -511
33 -71 159 -191 246 -236 180 -94 463 -112 683 -45 211 65 376 222 456 438 70
186 67 129 74 1235 5 750 9 1009 18 1037 28 84 71 109 215 124 l67 7 0 89 0
89 -52 -5 c-180 -19 -599 -28 -867 -17 -157 6 -303 14 -323 16 l-38 5 0 -88z"/>
<path d="M12720 13521 l0 -88 91 -12 c117 -15 161 -37 185 -93 18 -40 19 -92
25 -808 6 -814 9 -860 58 -1003 94 -272 332 -449 689 -513 48 -8 153 -18 233
-21 599 -24 980 208 1074 656 28 134 35 315 35 936 0 627 5 726 35 785 16 32
70 55 150 65 28 4 53 12 57 18 4 7 8 47 8 90 l0 77 -52 -6 c-183 -19 -416 -19
-645 0 l-63 5 0 -88 0 -88 73 -7 c102 -10 146 -24 177 -55 50 -49 52 -95 48
-886 l-4 -720 -26 -98 c-61 -224 -167 -333 -375 -388 -62 -17 -109 -21 -228
-22 -177 -1 -265 16 -371 68 -126 62 -195 163 -236 347 -20 88 -21 127 -25
781 -5 712 0 831 35 890 27 48 70 67 177 79 l95 12 0 88 0 88 -52 -5 c-186
-20 -967 -21 -1125 -1 l-43 6 0 -89z"/>
<path d="M15660 13522 l0 -89 91 -12 c100 -13 137 -27 167 -66 41 -52 44 -114
40 -1090 l-3 -930 -22 -48 c-27 -59 -62 -76 -185 -91 l-88 -10 0 -88 0 -88 83
7 c45 5 280 8 522 8 242 0 477 -3 523 -8 l82 -7 0 88 0 88 -93 11 c-119 14
-152 31 -180 91 -21 46 -22 60 -25 491 l-3 444 163 -6 c306 -11 418 -65 463
-222 22 -74 34 -227 35 -417 0 -191 15 -291 59 -384 72 -154 219 -222 456
-211 227 11 370 96 450 270 29 62 72 223 62 233 -1 2 -34 5 -71 6 l-68 3 -12
-45 c-30 -112 -75 -160 -152 -160 -35 0 -47 6 -73 35 -42 48 -58 112 -71 283
-23 296 -70 426 -194 539 -86 78 -255 142 -418 160 l-63 7 108 18 c347 57 544
205 602 450 19 83 20 276 0 351 -50 191 -197 335 -415 406 -196 63 -357 74
-850 60 -349 -10 -841 -6 -897 8 -23 5 -23 3 -23 -85z m1275 -122 c226 -58
315 -210 302 -514 -15 -344 -166 -474 -554 -476 l-113 0 0 499 c0 467 1 500
18 504 9 3 74 5 143 6 96 1 144 -4 204 -19z"/>
<path d="M18360 13522 l0 -88 93 -11 c130 -15 163 -31 190 -90 l22 -48 0 -975
c0 -972 0 -975 -21 -1021 -27 -59 -70 -79 -191 -93 l-93 -10 0 -88 0 -88 83 7
c45 5 285 8 532 8 248 0 487 -3 533 -8 l82 -7 0 90 0 90 -37 0 c-59 0 -163 19
-195 36 -18 10 -38 33 -51 62 l-22 47 0 975 0 975 22 48 c27 59 60 75 190 90
l93 11 0 88 0 89 -47 -6 c-162 -20 -983 -21 -1140 -1 l-43 6 0 -88z"/>
<path d="M19840 13521 c0 -80 2 -91 18 -91 59 -1 167 -22 201 -39 30 -16 43
-31 58 -68 17 -45 18 -100 18 -1023 l0 -975 -23 -42 c-29 -56 -65 -73 -179
-86 l-93 -11 0 -89 0 -90 38 7 c87 15 562 18 922 7 290 -10 417 -10 515 -1
388 33 663 147 867 358 167 173 262 376 303 647 20 133 20 407 -1 543 -78 527
-434 890 -979 1001 -176 36 -333 42 -795 30 -383 -10 -820 -6 -856 8 -11 4
-14 -13 -14 -86z m1265 -112 c133 -16 229 -43 331 -93 253 -125 374 -376 404
-837 19 -286 -10 -577 -76 -779 -77 -232 -200 -366 -406 -441 -121 -44 -227
-59 -429 -59 l-179 0 0 1110 0 1110 133 0 c72 0 173 -5 222 -11z"/>
<path d="M22760 13522 l0 -88 94 -11 c152 -18 184 -43 205 -157 14 -78 15
-1830 1 -1905 -23 -121 -54 -146 -206 -164 l-94 -11 0 -88 0 -88 83 7 c45 5
285 8 532 8 248 0 487 -3 533 -8 l82 -7 0 90 0 90 -37 0 c-59 0 -163 19 -195
36 -18 10 -38 33 -51 62 l-22 47 0 975 0 975 22 48 c27 59 60 75 190 90 l93
11 0 88 0 88 -52 -5 c-189 -21 -976 -21 -1135 -1 l-43 6 0 -88z"/>
<path d="M11380 9675 l0 -115 8735 0 8735 0 0 115 0 115 -8735 0 -8735 0 0
-115z"/>
<path d="M21225 8290 c-66 -4 -121 -8 -122 -9 -2 0 -3 -16 -3 -35 0 -32 2 -34
45 -38 75 -9 75 -10 75 -191 0 -152 -1 -159 -17 -145 -35 30 -85 49 -147 55
-123 11 -225 -34 -289 -130 -54 -79 -70 -148 -65 -281 4 -129 22 -178 87 -249
97 -105 289 -127 400 -46 l41 29 0 -39 0 -39 143 5 c187 6 187 6 187 47 0 32
-2 34 -41 39 -23 3 -46 11 -50 19 -5 7 -9 239 -9 516 l0 502 -57 -2 c-32 -1
-112 -5 -178 -8z m-88 -471 c15 -5 40 -22 56 -37 l27 -26 0 -207 0 -208 -35
-26 c-81 -62 -166 -40 -213 54 -25 52 -27 65 -27 176 0 169 29 243 105 274 33
13 53 13 87 0z"/>
<path d="M22575 8290 c-66 -4 -121 -8 -122 -9 -2 0 -3 -16 -3 -35 0 -32 2 -34
45 -38 80 -9 75 23 75 -473 0 -488 4 -461 -64 -472 -33 -5 -36 -8 -36 -39 l0
-34 226 0 c202 0 225 2 220 16 -3 9 -6 24 -6 35 0 14 -7 19 -28 19 -15 0 -38
7 -50 16 l-22 15 0 505 0 504 -57 -2 c-32 -1 -112 -5 -178 -8z"/>
<path d="M16140 8283 c-23 -5 -149 -127 -241 -235 l-41 -48 43 0 c32 0 69 14
158 61 164 87 181 101 181 149 0 36 -19 70 -40 70 -5 0 -14 2 -22 4 -7 2 -24
1 -38 -1z"/>
<path d="M30094 8279 c-20 -6 -71 -52 -155 -141 l-124 -133 43 -3 c37 -3 61 7
175 68 73 39 140 80 150 92 9 11 17 35 17 53 0 52 -47 81 -106 64z"/>
<path d="M18135 8269 c-222 -30 -380 -170 -435 -385 -23 -88 -27 -241 -9 -326
36 -171 152 -301 319 -359 54 -19 87 -23 190 -23 142 -1 205 14 306 69 l62 33
38 -24 c22 -13 45 -24 51 -24 9 0 13 41 15 158 l3 157 33 14 c27 12 32 20 32
48 l0 33 -250 0 -250 0 0 -34 0 -34 59 -7 c32 -4 73 -15 90 -26 l31 -19 0 -99
c0 -98 0 -100 -30 -125 -59 -49 -208 -49 -288 1 -97 60 -142 190 -142 409 0
337 110 496 334 482 147 -10 232 -95 262 -260 6 -35 9 -38 40 -38 l34 0 0 185
0 185 -35 0 c-27 0 -35 -4 -35 -17 -1 -41 -14 -45 -74 -17 -61 28 -186 54
-251 52 -22 0 -67 -4 -100 -9z"/>
<path d="M9100 8220 c0 -39 1 -40 35 -40 25 0 44 -8 61 -25 l25 -25 -3 -416
c-3 -398 -4 -416 -22 -430 -11 -8 -37 -14 -58 -14 -38 0 -38 0 -38 -41 l0 -40
358 3 c337 4 360 5 415 26 178 66 273 168 312 334 19 83 19 257 0 333 -36 141
-125 253 -247 313 -113 55 -166 62 -520 62 l-318 0 0 -40z m571 -53 c160 -38
227 -131 249 -345 11 -101 1 -248 -21 -327 -27 -95 -79 -158 -164 -196 -38
-18 -74 -24 -152 -27 l-103 -4 0 456 0 456 68 0 c37 0 92 -6 123 -13z"/>
<path d="M12820 8220 l0 -40 41 0 c84 0 79 18 78 -323 0 -166 -4 -358 -8 -426
-6 -113 -9 -125 -30 -142 -14 -11 -39 -19 -62 -19 -39 0 -39 0 -39 -40 l0 -40
170 0 170 0 0 40 c0 39 -1 40 -35 40 -25 0 -44 8 -60 25 l-25 24 1 338 c0 186
4 358 7 382 7 41 15 21 163 -400 l155 -444 60 -6 c32 -3 61 -2 64 2 3 4 77
211 165 459 l160 451 3 -333 c4 -475 0 -498 -88 -498 l-40 0 0 -40 0 -40 250
0 250 0 0 40 0 40 -40 0 c-27 0 -47 7 -60 20 -19 19 -20 33 -20 435 0 402 1
416 20 435 13 13 33 20 60 20 l40 0 0 40 0 40 -202 -2 -202 -3 -131 -372 c-72
-205 -133 -374 -135 -377 -3 -2 -65 166 -139 375 l-134 379 -203 0 -204 0 0
-40z"/>
<path d="M26380 8219 l0 -39 50 0 c41 0 56 -5 76 -25 l25 -25 -3 -492 c-3
-452 -4 -495 -21 -519 -33 -49 -106 -64 -148 -30 l-23 18 31 32 c73 73 39 202
-59 217 -79 13 -148 -50 -148 -136 1 -91 64 -172 159 -205 59 -20 203 -20 264
1 83 28 155 107 190 209 7 18 13 203 16 473 l6 444 24 19 c13 10 38 19 57 19
33 0 34 1 34 39 l0 38 -265 0 -265 0 0 -38z"/>
<path d="M10470 7920 c-52 -4 -119 -8 -147 -9 l-53 -1 0 -34 c0 -34 2 -35 46
-42 75 -11 75 -14 72 -298 -2 -169 -7 -249 -15 -257 -6 -6 -32 -14 -57 -16
-45 -5 -46 -7 -46 -39 l0 -34 255 0 255 0 0 34 0 34 -61 4 c-94 7 -99 17 -99
187 0 157 12 235 45 302 22 41 75 99 93 99 4 0 6 -20 4 -45 -7 -85 27 -125
108 -125 56 0 90 43 90 114 0 62 -24 100 -76 122 -88 37 -186 1 -246 -88 l-28
-41 0 71 c0 68 -1 72 -22 70 -13 -1 -66 -5 -118 -8z"/>
<path d="M11264 7916 c-98 -22 -158 -59 -193 -116 -25 -41 -27 -80 -6 -119 17
-33 33 -41 86 -41 29 0 47 8 71 29 31 28 33 33 32 94 -2 60 0 66 23 76 13 6
49 11 79 11 48 0 60 -4 84 -28 24 -24 29 -39 35 -107 5 -47 4 -85 -2 -94 -11
-18 -49 -30 -188 -60 -127 -26 -221 -73 -247 -121 -23 -44 -24 -130 -2 -176
35 -74 133 -107 255 -86 79 14 113 29 164 73 28 25 35 27 35 14 0 -9 15 -32
33 -50 65 -65 203 -57 283 17 49 45 51 53 28 79 -16 18 -18 18 -42 -1 -13 -11
-33 -20 -42 -20 -40 0 -45 24 -50 264 -4 205 -7 235 -24 263 -24 40 -64 70
-119 89 -59 22 -218 27 -293 10z m216 -467 c0 -81 0 -82 -38 -119 -41 -41
-101 -64 -135 -51 -81 31 -84 156 -5 197 32 17 140 52 166 53 9 1 12 -22 12
-80z"/>
<path d="M14504 7916 c-73 -17 -111 -35 -159 -77 -86 -76 -60 -199 42 -199 24
0 55 7 68 16 31 20 49 75 41 129 -5 41 -4 44 26 54 40 14 110 14 141 0 35 -16
49 -53 55 -140 4 -73 3 -78 -19 -92 -13 -8 -72 -24 -131 -36 -231 -46 -308
-101 -308 -223 0 -62 32 -120 83 -149 36 -21 55 -24 132 -24 75 1 99 5 145 27
30 14 67 37 82 50 l27 26 12 -29 c45 -111 254 -102 337 14 l22 32 -22 16 c-20
16 -23 16 -50 -4 -23 -17 -32 -18 -52 -9 l-24 11 -4 228 c-3 213 -5 231 -25
270 -42 78 -118 112 -263 119 -60 2 -118 -1 -156 -10z m216 -465 c0 -71 -3
-83 -26 -111 -83 -97 -204 -77 -204 34 0 72 36 106 145 137 89 26 85 29 85
-60z"/>
<path d="M15243 7917 l-143 -9 0 -34 c0 -31 2 -33 46 -40 75 -11 76 -14 72
-298 -2 -169 -7 -249 -15 -257 -6 -6 -32 -14 -57 -16 -45 -5 -46 -7 -46 -39
l0 -34 255 0 255 0 0 34 0 33 -66 6 c-36 2 -71 10 -77 16 -8 8 -12 68 -12 189
0 212 14 269 80 339 23 24 46 43 51 43 5 0 7 -27 6 -60 -3 -52 -1 -62 22 -85
38 -38 107 -36 148 5 28 29 30 35 26 90 -3 45 -10 66 -28 85 -31 33 -83 49
-142 42 -64 -8 -114 -39 -149 -96 l-29 -45 0 72 0 72 -27 -2 c-16 0 -92 -5
-170 -11z"/>
<path d="M15963 7917 l-153 -9 0 -34 c0 -32 1 -33 50 -40 80 -11 80 -11 80
-279 0 -126 -3 -240 -6 -252 -7 -24 -49 -43 -95 -43 -26 0 -29 -3 -29 -35 l0
-35 235 0 235 0 0 35 c0 33 -2 35 -33 35 -18 0 -42 6 -53 14 -18 14 -19 31
-22 335 l-3 321 -27 -2 c-15 0 -96 -5 -179 -11z"/>
<path d="M16584 7915 c-34 -7 -76 -20 -93 -29 -109 -57 -149 -157 -88 -223 25
-28 95 -31 132 -7 31 20 49 75 41 129 -5 41 -4 44 26 54 52 18 131 14 156 -9
27 -25 42 -79 42 -152 0 -73 -9 -79 -152 -107 -231 -46 -308 -101 -308 -223 0
-62 32 -120 83 -149 36 -21 54 -24 132 -23 97 0 151 17 218 68 l34 26 24 -38
c60 -92 251 -76 328 28 l24 33 -24 18 c-22 16 -24 16 -47 -2 -28 -21 -40 -23
-62 -9 -12 8 -16 49 -20 237 -5 212 -7 231 -28 270 -12 24 -40 55 -62 69 -77
51 -226 67 -356 39z m216 -468 c0 -81 -1 -84 -32 -114 -44 -41 -73 -55 -116
-55 -99 0 -113 153 -19 204 23 12 133 46 155 47 9 1 12 -22 12 -82z"/>
<path d="M19000 7920 c-52 -4 -119 -8 -147 -9 l-53 -1 0 -34 c0 -36 12 -46 55
-46 46 0 50 -17 55 -274 6 -266 8 -276 74 -334 87 -76 287 -64 403 24 l33 25
0 -40 0 -41 160 0 160 0 0 35 c0 31 -3 35 -35 41 -20 3 -40 15 -45 25 -6 10
-10 147 -10 329 l0 312 -42 -5 c-24 -4 -100 -9 -170 -13 l-128 -6 0 -34 c0
-32 2 -34 40 -40 67 -11 70 -21 70 -245 l0 -196 -29 -40 c-65 -90 -210 -97
-240 -12 -7 21 -11 132 -11 310 l0 279 -22 -2 c-13 -1 -66 -5 -118 -8z"/>
<path d="M20080 7920 c-92 -20 -170 -64 -200 -113 -29 -47 -27 -111 5 -142 34
-35 102 -35 142 -1 26 22 28 30 28 95 0 69 1 71 29 81 38 13 122 13 148 -1 31
-17 48 -71 48 -153 0 -90 2 -88 -128 -111 -110 -19 -205 -47 -250 -75 -86 -53
-106 -193 -38 -268 40 -45 75 -56 171 -56 97 0 153 17 223 70 18 14 34 24 36
23 1 -2 7 -17 14 -32 8 -19 28 -35 59 -49 88 -39 212 -8 270 68 l27 36 -23 20
c-24 18 -24 18 -47 -3 -28 -27 -69 -20 -78 13 -3 13 -6 111 -6 218 0 107 -5
212 -11 233 -14 53 -60 101 -121 127 -59 25 -220 36 -298 20z m200 -473 c0
-83 0 -83 -38 -120 -66 -65 -146 -68 -177 -6 -33 62 -9 131 56 164 23 13 121
41 152 44 4 1 7 -36 7 -82z"/>
<path d="M21880 7920 c-139 -30 -220 -98 -220 -188 0 -61 32 -92 95 -92 38 0
52 5 76 29 26 27 29 36 29 95 0 62 2 67 26 76 34 13 120 13 146 -1 31 -17 48
-71 48 -153 0 -89 3 -87 -125 -110 -249 -46 -329 -100 -329 -226 -1 -96 46
-151 146 -172 101 -21 230 13 301 80 22 21 27 23 27 9 0 -59 84 -103 176 -94
69 7 119 33 158 80 l30 38 -22 21 -22 22 -23 -22 c-30 -28 -52 -28 -71 0 -13
19 -16 58 -16 223 0 110 -5 217 -11 238 -14 53 -60 101 -121 127 -59 25 -220
36 -298 20z m200 -475 c0 -83 -1 -85 -35 -119 -44 -45 -96 -60 -140 -42 -59
25 -72 121 -24 172 22 23 125 63 192 73 4 0 7 -37 7 -84z"/>
<path d="M23150 7920 c-52 -4 -119 -8 -147 -9 l-53 -1 0 -35 c0 -33 2 -35 41
-41 69 -11 69 -12 69 -233 0 -220 9 -288 45 -342 75 -114 328 -117 448 -6 l27
26 0 -44 0 -45 155 0 155 0 0 34 c0 29 -4 35 -27 41 -54 13 -53 4 -53 347 l0
320 -52 -6 c-29 -3 -108 -8 -175 -12 l-123 -7 0 -32 c0 -31 3 -34 43 -40 23
-4 48 -12 55 -17 9 -8 12 -66 12 -226 l0 -215 -43 -42 c-62 -63 -158 -74 -203
-24 -18 20 -19 43 -22 320 l-3 299 -27 -2 c-15 -1 -70 -5 -122 -8z"/>
<path d="M24150 7920 c-52 -4 -119 -8 -147 -9 l-53 -1 0 -34 c0 -33 2 -35 45
-41 24 -4 50 -14 57 -23 19 -22 19 -842 0 -865 -7 -8 -31 -18 -53 -22 -36 -6
-39 -9 -39 -41 l0 -34 235 0 235 0 0 34 c0 33 -1 34 -55 41 -39 4 -58 12 -65
25 -6 10 -10 87 -10 170 l0 151 39 -31 c72 -58 178 -75 282 -44 72 21 148 96
177 175 43 117 37 286 -14 395 -83 176 -318 218 -461 81 l-33 -31 0 57 c0 53
-2 57 -22 55 -13 -1 -66 -5 -118 -8z m373 -137 c44 -43 60 -116 55 -249 -4
-94 -8 -120 -29 -160 -47 -94 -136 -107 -210 -33 l-39 39 0 167 c0 164 0 167
26 201 33 43 98 74 139 67 16 -3 42 -18 58 -32z"/>
<path d="M25195 7917 c-96 -25 -160 -69 -210 -141 -50 -74 -69 -151 -63 -256
9 -145 69 -245 181 -299 112 -56 252 -64 377 -24 71 22 150 98 172 165 16 45
16 46 -5 52 -38 10 -43 7 -76 -43 -77 -119 -250 -137 -340 -35 -39 45 -55 85
-66 170 l-6 51 167 6 c92 4 208 7 257 7 l90 0 -7 63 c-20 176 -142 283 -334
292 -53 3 -107 0 -137 -8z m188 -81 c29 -17 58 -83 64 -142 l6 -54 -147 0
-148 0 7 33 c23 112 52 160 108 176 35 10 81 5 110 -13z"/>
<path d="M27180 7920 c-52 -4 -119 -8 -147 -9 l-53 -1 0 -35 c0 -36 3 -38 65
-47 39 -6 45 -42 45 -263 0 -121 5 -227 11 -250 17 -62 84 -120 155 -135 107
-23 229 3 311 66 l33 25 0 -40 0 -41 160 0 160 0 0 35 c0 31 -3 35 -35 41 -20
3 -40 15 -45 25 -6 10 -10 147 -10 329 l0 312 -42 -5 c-24 -4 -100 -9 -170
-13 l-128 -6 0 -34 c0 -32 2 -34 40 -40 67 -11 70 -21 70 -245 0 -187 -1 -198
-23 -230 -43 -65 -144 -97 -206 -64 -47 24 -51 54 -51 356 l0 279 -22 -2 c-13
-1 -66 -5 -118 -8z"/>
<path d="M28280 7924 c-153 -30 -240 -99 -240 -192 0 -61 32 -92 95 -92 38 0
52 5 76 30 28 28 30 35 28 92 -3 58 -1 64 22 75 30 16 123 17 151 2 31 -17 48
-71 48 -153 0 -89 3 -87 -125 -110 -249 -46 -329 -100 -329 -226 -1 -99 58
-163 160 -176 99 -12 189 11 263 67 35 27 51 34 51 23 0 -29 32 -63 76 -80 87
-33 205 0 261 72 l27 36 -23 20 c-24 18 -24 18 -46 -2 -28 -26 -50 -25 -69 2
-13 19 -16 58 -16 223 0 110 -5 217 -11 238 -27 97 -118 148 -274 152 -55 2
-111 1 -125 -1z m180 -479 c0 -84 0 -84 -36 -119 -93 -90 -210 -47 -191 70 7
44 30 72 77 92 30 13 118 38 143 41 4 1 7 -37 7 -84z"/>
<path d="M29040 7920 c-52 -4 -119 -8 -147 -9 l-53 -1 0 -34 c0 -34 2 -35 45
-42 77 -11 75 -4 75 -283 0 -186 -3 -252 -13 -265 -7 -9 -32 -20 -55 -23 -40
-5 -42 -7 -42 -39 l0 -34 250 0 250 0 0 34 0 34 -60 4 c-87 6 -93 15 -98 145
-8 207 27 357 99 418 17 14 34 25 37 25 4 0 7 -27 7 -61 0 -54 3 -63 28 -85
33 -28 100 -33 134 -9 48 33 53 126 11 180 -76 97 -243 59 -311 -70 -16 -30
-16 -29 -17 48 0 74 -1 77 -22 75 -13 -1 -66 -5 -118 -8z"/>
<path d="M29860 7915 c-153 -43 -246 -156 -265 -321 -8 -74 8 -171 40 -234 32
-62 113 -134 183 -161 82 -32 261 -32 344 0 68 26 125 81 158 151 20 44 22 53
10 61 -31 19 -55 9 -82 -36 -76 -125 -268 -142 -352 -32 -33 43 -56 114 -56
172 l0 42 158 6 c86 4 199 7 251 7 l94 0 -5 63 c-3 35 -15 84 -26 110 -29 65
-100 131 -170 158 -75 28 -207 35 -282 14z m198 -82 c30 -18 58 -83 65 -145
l5 -48 -146 0 -145 0 6 50 c16 133 121 203 215 143z"/>
<path d="M30440 7815 l0 -105 30 0 c24 0 31 5 36 28 11 54 26 80 50 91 14 6
78 11 150 11 l125 0 -216 -319 c-118 -176 -215 -322 -215 -325 0 -3 164 -6
365 -6 l365 0 0 115 0 115 -29 0 c-28 0 -30 -3 -37 -45 -14 -95 -55 -115 -237
-115 l-117 0 211 316 c115 174 213 322 216 330 4 12 -47 14 -346 14 l-351 0 0
-105z"/>
<path d="M12020 7418 c-13 -7 -35 -29 -47 -47 -84 -124 83 -267 189 -161 25
25 28 36 28 89 0 52 -4 65 -28 92 -32 36 -100 49 -142 27z"/>
</g>
</svg>
